<?xml version="1.0" encoding="UTF-8"?> <!-- Generator: Adobe Illustrator 21.0.2, SVG Export Plug-In . SVG Version: 6.00 Build 0) --> <svg xmlns="http://www.w3.org/2000/svg" xmlns:xlink="http://www.w3.org/1999/xlink" id="Layer_1" x="0px" y="0px" viewBox="0 0 690.7 435.8" style="enable-background:new 0 0 690.7 435.8;" xml:space="preserve"> <style type="text/css"> .st0{clip-path:url(#SVGID_2_);} .st1{fill:#FFFFFF;} .st2{fill-rule:evenodd;clip-rule:evenodd;fill:#FFFFFF;} </style> <g> <defs> <rect id="SVGID_1_" width="690.7" height="435.8"></rect> </defs> <clipPath id="SVGID_2_"> <use xlink:href="#SVGID_1_" style="overflow:visible;"></use> </clipPath> <g class="st0"> <path class="st1" d="M2.8,332.2l-1.9-5.8c127.3-42.3,376.6-106.7,689-64.8l-0.8,6C377.9,225.9,129.6,290.1,2.8,332.2z"></path> <g> <polygon class="st2" points="316.7,0.7 321.8,22 343.2,26.9 322.3,31.4 316.7,51.7 310.7,31.7 291.6,26.5 311.2,22 "></polygon> <polygon class="st2" points="249.2,68.7 254.3,90.1 275.8,94.9 254.8,99.4 249.2,119.7 243.3,99.7 224.2,94.5 243.7,90.1 "></polygon> <polygon class="st2" points="398.2,44.7 403.2,66 424.7,70.9 403.8,75.4 398.2,95.6 392.2,75.6 373.1,70.5 392.6,66 "></polygon> <polygon class="st2" points="345.2,190.5 350.3,211.8 371.7,216.7 350.8,221.1 345.2,241.4 339.3,221.4 320.1,216.2 339.7,211.8 "></polygon> </g> <g> <g> <path class="st1" d="M87.3,358.1h10.2v76.2h-11V375l-23.4,29.4h-2L37.4,375v59.3H26.5v-76.2h10.3l25.3,31.3L87.3,358.1z"></path> <path class="st1" d="M123.4,358.1h43.2v9.7h-32.3V391h31.2v9.8h-31.2v23.7h33.3v9.7h-44.2V358.1z"></path> <path class="st1" d="M189,434.2v-76.2h19.1c7.7,0,13.8,1.9,18.3,5.7c4.5,3.8,6.8,9,6.8,15.5c0,4.4-1.1,8.3-3.3,11.5 c-2.2,3.2-5.4,5.6-9.5,7.3c2.4,1.6,4.8,3.8,7.1,6.5c2.3,2.8,5.6,7.6,9.8,14.5c2.6,4.3,4.8,7.6,6.4,9.8l4,5.5h-13l-3.3-5 c-0.1-0.2-0.3-0.5-0.7-0.9l-2.1-3l-3.4-5.6l-3.6-5.9c-2.2-3.1-4.3-5.6-6.2-7.5c-1.9-1.8-3.6-3.2-5.1-4c-1.5-0.8-4-1.2-7.6-1.2 h-2.8v33.2H189z M203.2,367.3h-3.3v24.1h4.1c5.5,0,9.3-0.5,11.4-1.4c2.1-0.9,3.6-2.4,4.8-4.3c1.1-1.9,1.7-4.1,1.7-6.5 c0-2.4-0.6-4.6-1.9-6.5c-1.3-1.9-3.1-3.3-5.4-4.1C212.4,367.7,208.6,367.3,203.2,367.3z"></path> <path class="st1" d="M331.3,416.6v12c-8,4.4-17.2,6.5-27.7,6.5c-8.5,0-15.7-1.7-21.7-5.1c-5.9-3.4-10.6-8.1-14.1-14.1 c-3.5-6-5.2-12.5-5.2-19.5c0-11.1,4-20.4,11.9-28c7.9-7.6,17.7-11.3,29.3-11.3c8,0,16.9,2.1,26.7,6.3v11.7 c-8.9-5.1-17.6-7.6-26.1-7.6c-8.7,0-16,2.8-21.7,8.3c-5.8,5.5-8.6,12.4-8.6,20.7c0,8.4,2.8,15.2,8.5,20.6 c5.7,5.4,12.9,8.1,21.8,8.1C313.5,425.1,322.5,422.2,331.3,416.6z"></path> <path class="st1" d="M391.6,357c11.8,0,21.6,3.7,29.4,11.2c7.8,7.5,11.8,16.8,11.8,28c0,11.2-4,20.5-11.9,27.9 c-7.9,7.4-17.9,11-29.9,11c-11.5,0-21.1-3.7-28.7-11c-7.7-7.4-11.5-16.6-11.5-27.7c0-11.4,3.8-20.8,11.6-28.2 C370.1,360.7,379.9,357,391.6,357z M392.1,367.3c-8.7,0-15.9,2.7-21.5,8.2c-5.6,5.5-8.4,12.4-8.4,20.9c0,8.2,2.8,15.1,8.5,20.5 c5.6,5.5,12.7,8.2,21.2,8.2c8.5,0,15.6-2.8,21.3-8.3c5.7-5.6,8.5-12.5,8.5-20.8c0-8.1-2.8-14.9-8.5-20.4 C407.4,370.1,400.4,367.3,392.1,367.3z"></path> <path class="st1" d="M474.5,402.3l-8.3-5c-5.2-3.2-8.9-6.3-11.1-9.4c-2.2-3.1-3.3-6.6-3.3-10.6c0-6,2.1-10.9,6.2-14.6 c4.2-3.7,9.6-5.6,16.2-5.6c6.4,0,12.2,1.8,17.5,5.4v12.4c-5.5-5.3-11.4-7.9-17.7-7.9c-3.6,0-6.5,0.8-8.8,2.5 c-2.3,1.6-3.4,3.8-3.4,6.3c0,2.3,0.8,4.4,2.5,6.4c1.7,2,4.4,4.1,8.1,6.3l8.3,4.9c9.3,5.5,13.9,12.6,13.9,21.2 c0,6.1-2,11.1-6.1,14.9c-4.1,3.8-9.4,5.7-15.9,5.7c-7.5,0-14.4-2.3-20.6-6.9v-13.8c5.9,7.5,12.7,11.2,20.4,11.2 c3.4,0,6.3-0.9,8.5-2.9c2.3-1.9,3.4-4.3,3.4-7.1C484.6,410.9,481.2,406.5,474.5,402.3z"></path> <path class="st1" d="M569.3,358.1h11v43.2c0,5.8-0.4,10.3-1.3,13.2c-0.9,3-1.9,5.5-3.2,7.4c-1.3,2-2.8,3.7-4.6,5.3 c-6,5.2-13.9,7.8-23.7,7.8c-9.9,0-17.9-2.6-23.9-7.7c-1.8-1.6-3.4-3.4-4.6-5.4c-1.3-2-2.3-4.4-3.1-7.3 c-0.8-2.9-1.2-7.4-1.2-13.5v-43.1h11v43.2c0,7.2,0.8,12.1,2.4,14.9c1.6,2.8,4.1,5,7.5,6.7c3.3,1.7,7.3,2.5,11.8,2.5 c6.5,0,11.7-1.7,15.8-5.1c2.1-1.8,3.7-4,4.6-6.4c0.9-2.5,1.4-6.7,1.4-12.7V358.1z"></path> </g> <g> <path class="st1" d="M605.2,358.1h11v67h34.7v10h-45.7V358.1z"></path> </g> </g> </g> </g> </svg> 